<svg width="48" height="48" viewBox="0 0 48 48" fill="none" xmlns="http://www.w3.org/2000/svg">
<g filter="url(#filter0_d_702_1630)">
<rect x="4" y="2" width="40" height="40" rx="8" fill="#1C1C1C" shape-rendering="crispEdges"/>
<rect x="4.5" y="2.5" width="39" height="39" rx="7.5" stroke="#272727" shape-rendering="crispEdges"/>
<path fill-rule="evenodd" clip-rule="evenodd" d="M16.5898 21.411L24.1068 13.894C24.3655 13.6353 24.7849 13.6353 25.0436 13.894L29.2197 18.0701C29.4784 18.3288 29.4784 18.7482 29.2197 19.0069L21.7027 26.5239C21.444 26.7826 21.0246 26.7826 20.7659 26.5239L16.5898 22.3478C16.3311 22.0891 16.3311 21.6697 16.5898 21.411ZM15.3877 23.5499C14.4652 22.6273 14.4652 21.1315 15.3877 20.209L22.9048 12.6919C23.8273 11.7694 25.3231 11.7694 26.2457 12.6919L30.4218 16.8681C31.3443 17.7906 31.3443 19.2864 30.4218 20.209L28.9299 21.7008L32.2757 25.0466C33.5275 26.2984 33.5275 28.328 32.2757 29.5798C31.0239 30.8316 28.9943 30.8316 27.7425 29.5798L24.3967 26.234L22.9048 27.726C21.9822 28.6486 20.4864 28.6485 19.5639 27.726L15.3877 23.5499ZM25.5988 25.032L28.9445 28.3777C29.5325 28.9657 30.4857 28.9657 31.0736 28.3777C31.6615 27.7898 31.6615 26.8366 31.0736 26.2487L27.7278 22.9029L25.5988 25.032Z" fill="white"/>
<path d="M14.8984 31.1017H19.6232" stroke="#007AFF" stroke-width="1.7" stroke-linecap="round"/>
</g>
<defs>
<filter id="filter0_d_702_1630" x="0" y="0" width="48" height="48" filterUnits="userSpaceOnUse" color-interpolation-filters="sRGB">
<feFlood flood-opacity="0" result="BackgroundImageFix"/>
<feColorMatrix in="SourceAlpha" type="matrix" values="0 0 0 0 0 0 0 0 0 0 0 0 0 0 0 0 0 0 127 0" result="hardAlpha"/>
<feOffset dy="2"/>
<feGaussianBlur stdDeviation="2"/>
<feComposite in2="hardAlpha" operator="out"/>
<feColorMatrix type="matrix" values="0 0 0 0 0.0375 0 0 0 0 0.0375 0 0 0 0 0.0375 0 0 0 0.25 0"/>
<feBlend mode="normal" in2="BackgroundImageFix" result="effect1_dropShadow_702_1630"/>
<feBlend mode="normal" in="SourceGraphic" in2="effect1_dropShadow_702_1630" result="shape"/>
</filter>
</defs>
</svg>
