<svg width="48" height="48" viewBox="0 0 48 48" fill="none" xmlns="http://www.w3.org/2000/svg">
<g filter="url(#filter0_d_702_1636)">
<rect x="4" y="2" width="40" height="40" rx="8" fill="#1C1C1C" shape-rendering="crispEdges"/>
<rect x="4.5" y="2.5" width="39" height="39" rx="7.5" stroke="#272727" shape-rendering="crispEdges"/>
<path fill-rule="evenodd" clip-rule="evenodd" d="M16.6334 12.5861C16.6334 11.8758 17.2092 11.3 17.9195 11.3H30.0806C30.7869 11.3 31.3667 11.8693 31.3667 12.5835V12.5937V12.6038V12.614V12.6242V12.6344V12.6446V12.6548V12.665V12.6753V12.6855V12.6958V12.706V12.7163V12.7266V12.7369V12.7472V12.7576V12.7679V12.7783V12.7886V12.799V12.8094V12.8198V12.8302V12.8406V12.851V12.8615V12.8719V12.8824V12.8928V12.9033V12.9138V12.9243V12.9348V12.9454V12.9559V12.9664V12.977V12.9876V12.9981V13.0087V13.0193V13.0299V13.0406V13.0512V13.0618V13.0725V13.0831V13.0938V13.1045V13.1152V13.1259V13.1366V13.1473V13.158V13.1688V13.1795V13.1903V13.2011V13.2118V13.2226V13.2334V13.2442V13.2551V13.2659V13.2767V13.2876V13.2984V13.3093V13.3202V13.3311V13.342V13.3529V13.3638V13.3747V13.3857V13.3966V13.4076V13.4185V13.4295V13.4405V13.4515V13.4625V13.4735V13.4845V13.4955V13.5066V13.5176V13.5222H31.7778C33.3917 13.5222 34.7001 14.8305 34.7001 16.4444V17.8966C34.7001 19.023 34.0527 20.0491 33.0361 20.5341L30.9681 21.5207C30.903 21.5518 30.8354 21.5719 30.7675 21.5818C29.726 23.9966 27.4297 25.7432 24.7001 26.0005V27.9667H26.5927C27.2249 27.9667 27.8402 28.1717 28.346 28.5511L29.5312 29.44C30.9236 30.4843 30.185 32.7 28.4445 32.7H19.5556C17.8151 32.7 17.0765 30.4843 18.4689 29.44L19.6541 28.5511C20.16 28.1717 20.7752 27.9667 21.4075 27.9667H23.3001V26.0005C20.5705 25.7432 18.2742 23.9965 17.2327 21.5818C17.1648 21.5719 17.0972 21.5518 17.032 21.5207L14.964 20.5341C13.9474 20.0491 13.3 19.023 13.3 17.8966V16.4444C13.3 14.8305 14.6084 13.5222 16.2223 13.5222H16.6334V12.5861ZM29.9667 18.6669C29.9667 21.9614 27.2966 24.6321 24.0023 24.6333H24C20.7047 24.6333 18.0334 21.962 18.0334 18.6667V12.7H29.9667V12.706V12.7163V12.7266V12.7369V12.7472V12.7576V12.7679V12.7783V12.7886V12.799V12.8094V12.8198V12.8302V12.8406V12.851V12.8615V12.8719V12.8824V12.8928V12.9033V12.9138V12.9243V12.9348V12.9454V12.9559V12.9664V12.977V12.9876V12.9981V13.0087V13.0193V13.0299V13.0406V13.0512V13.0618V13.0725V13.0831V13.0938V13.1045V13.1152V13.1259V13.1366V13.1473V13.158V13.1688V13.1795V13.1903V13.2011V13.2118V13.2226V13.2334V13.2442V13.2551V13.2659V13.2767V13.2876V13.2984V13.3093V13.3202V13.3311V13.342V13.3529V13.3638V13.3747V13.3857V13.3966V13.4076V13.4185V13.4295V13.4405V13.4515V13.4625V13.4735V13.4845V13.4955V13.5066V13.5176V13.5287V13.5397V13.5508V13.5619V13.573V13.5841V13.5952V13.6063V13.6175V13.6286V13.6397V13.6509V13.6621V13.6732V13.6844V13.6956V13.7068V13.718V13.7292V13.7405V13.7517V13.7629V13.7742V13.7854V13.7967V13.808V13.8193V13.8306V13.8419V13.8532V13.8645V13.8758V13.8871V13.8985V13.9098V13.9212V13.9326V13.9439V13.9553V13.9667V13.9781V13.9895V14.0009V14.0123V14.0238V14.0352V14.0467V14.0581V14.0696V14.081V14.0925V14.104V14.1155V14.127V14.1385V14.15V14.1615V14.1731V14.1846V14.1962V14.2077V14.2193V14.2308V14.2424V14.254V14.2656V14.2772V14.2888V14.3004V14.312V14.3236V14.3353V14.3469V14.3585V14.3702V14.3819V14.3935V14.4052V14.4169V14.4286V14.4403V14.452V14.4637V14.4754V14.4871V14.4988V14.5106V14.5223V14.5341V14.5458V14.5576V14.5694V14.5811V14.5929V14.6047V14.6165V14.6283V14.6401V14.6519V14.6637V14.6756V14.6874V14.6992V14.7111V14.7229V14.7348V14.7467V14.7585V14.7704V14.7823V14.7942V14.8061V14.818V14.8299V14.8418V14.8537V14.8656V14.8776V14.8895V14.9014V14.9134V14.9253V14.9373V14.9493V14.9612V14.9732V14.9852V14.9972V15.0092V15.0212V15.0332V15.0452V15.0572V15.0692V15.0812V15.0933V15.1053V15.1173V15.1294V15.1414V15.1535V15.1655V15.1776V15.1897V15.2018V15.2138V15.2259V15.238V15.2501V15.2622V15.2743V15.2864V15.2985V15.3107V15.3228V15.3349V15.3471V15.3592V15.3713V15.3835V15.3956V15.4078V15.42V15.4321V15.4443V15.4565V15.4687V15.4809V15.493V15.5052V15.5174V15.5296V15.5418V15.5541V15.5663V15.5785V15.5907V15.6029V15.6152V15.6274V15.6397V15.6519V15.6641V15.6764V15.6887V15.7009V15.7132V15.7255V15.7377V15.75V15.7623V15.7746V15.7869V15.7991V15.8114V15.8237V15.836V15.8483V15.8607V15.873V15.8853V15.8976V15.9099V15.9222V15.9346V15.9469V15.9592V15.9716V15.9839V15.9963V16.0086V16.021V16.0333V16.0457V16.0581V16.0704V16.0828V16.0952V16.1075V16.1199V16.1323V16.1447V16.1571V16.1695V16.1818V16.1942V16.2066V16.219V16.2314V16.2438V16.2563V16.2687V16.2811V16.2935V16.3059V16.3183V16.3308V16.3432V16.3556V16.368V16.3805V16.3929V16.4054V16.4178V16.4302V16.4427V16.4551V16.4676V16.48V16.4925V16.5049V16.5174V16.5299V16.5423V16.5548V16.5672V16.5797V16.5922V16.6047V16.6171V16.6296V16.6421V16.6546V16.667V16.6795V16.692V16.7045V16.717V16.7295V16.742V16.7545V16.7669V16.7794V16.7919V16.8044V16.8169V16.8294V16.8419V16.8544V16.8669V16.8795V16.892V16.9045V16.917V16.9295V16.942V16.9545V16.967V16.9795V16.9921V17.0046V17.0171V17.0296V17.0421V17.0547V17.0672V17.0797V17.0922V17.1047V17.1173V17.1298V17.1423V17.1548V17.1674V17.1799V17.1924V17.205V17.2175V17.23V17.2425V17.2551V17.2676V17.2801V17.2927V17.3052V17.3177V17.3303V17.3428V17.3553V17.3679V17.3804V17.3929V17.4055V17.418V17.4305V17.4431V17.4556V17.4681V17.4807V17.4932V17.5057V17.5183V17.5308V17.5433V17.5559V17.5684V17.5809V17.5935V17.606V17.6185V17.6311V17.6436V17.6561V17.6687V17.6812V17.6937V17.7062V17.7188V17.7313V17.7438V17.7563V17.7689V17.7814V17.7939V17.8064V17.819V17.8315V17.844V17.8565V17.869V17.8815V17.8941V17.9066V17.9191V17.9316V17.9441V17.9566V17.9691V17.9816V17.9941V18.0066V18.0191V18.0317V18.0442V18.0567V18.0692V18.0816V18.0941V18.1066V18.1191V18.1316V18.1441V18.1566V18.1691V18.1816V18.1941V18.2065V18.219V18.2315V18.244V18.2564V18.2689V18.2814V18.2938V18.3063V18.3188V18.3312V18.3437V18.3562V18.3686V18.3811V18.3935V18.406V18.4184V18.4309V18.4433V18.4558V18.4682V18.4806V18.4931V18.5055V18.5179V18.5303V18.5428V18.5552V18.5676V18.58V18.5924V18.6049V18.6173V18.6297V18.6421V18.6545V18.6669ZM31.2766 19.8223L32.4333 19.2705C32.9628 19.0179 33.3001 18.4834 33.3001 17.8966V16.4444C33.3001 15.6037 32.6185 14.9222 31.7778 14.9222H31.3667V14.9253V14.9373V14.9493V14.9612V14.9732V14.9852V14.9972V15.0092V15.0212V15.0332V15.0452V15.0572V15.0692V15.0812V15.0933V15.1053V15.1173V15.1294V15.1414V15.1535V15.1655V15.1776V15.1897V15.2018V15.2138V15.2259V15.238V15.2501V15.2622V15.2743V15.2864V15.2985V15.3107V15.3228V15.3349V15.3471V15.3592V15.3713V15.3835V15.3956V15.4078V15.42V15.4321V15.4443V15.4565V15.4687V15.4809V15.493V15.5052V15.5174V15.5296V15.5418V15.5541V15.5663V15.5785V15.5907V15.6029V15.6152V15.6274V15.6397V15.6519V15.6641V15.6764V15.6887V15.7009V15.7132V15.7255V15.7377V15.75V15.7623V15.7746V15.7869V15.7991V15.8114V15.8237V15.836V15.8483V15.8607V15.873V15.8853V15.8976V15.9099V15.9222V15.9346V15.9469V15.9592V15.9716V15.9839V15.9963V16.0086V16.021V16.0333V16.0457V16.0581V16.0704V16.0828V16.0952V16.1075V16.1199V16.1323V16.1447V16.1571V16.1695V16.1818V16.1942V16.2066V16.219V16.2314V16.2438V16.2563V16.2687V16.2811V16.2935V16.3059V16.3183V16.3308V16.3432V16.3556V16.368V16.3805V16.3929V16.4054V16.4178V16.4302V16.4427V16.4551V16.4676V16.48V16.4925V16.5049V16.5174V16.5299V16.5423V16.5548V16.5672V16.5797V16.5922V16.6047V16.6171V16.6296V16.6421V16.6546V16.667V16.6795V16.692V16.7045V16.717V16.7295V16.742V16.7545V16.7669V16.7794V16.7919V16.8044V16.8169V16.8294V16.8419V16.8544V16.8669V16.8795V16.892V16.9045V16.917V16.9295V16.942V16.9545V16.967V16.9795V16.9921V17.0046V17.0171V17.0296V17.0421V17.0547V17.0672V17.0797V17.0922V17.1047V17.1173V17.1298V17.1423V17.1548V17.1674V17.1799V17.1924V17.205V17.2175V17.23V17.2425V17.2551V17.2676V17.2801V17.2927V17.3052V17.3177V17.3303V17.3428V17.3553V17.3679V17.3804V17.3929V17.4055V17.418V17.4305V17.4431V17.4556V17.4681V17.4807V17.4932V17.5057V17.5183V17.5308V17.5433V17.5559V17.5684V17.5809V17.5935V17.606V17.6185V17.6311V17.6436V17.6561V17.6687V17.6812V17.6937V17.7062V17.7188V17.7313V17.7438V17.7563V17.7689V17.7814V17.7939V17.8064V17.819V17.8315V17.844V17.8565V17.869V17.8815V17.8941V17.9066V17.9191V17.9316V17.9441V17.9566V17.9691V17.9816V17.9941V18.0066V18.0191V18.0317V18.0442V18.0567V18.0692V18.0816V18.0941V18.1066V18.1191V18.1316V18.1441V18.1566V18.1691V18.1816V18.1941V18.2065V18.219V18.2315V18.244V18.2564V18.2689V18.2814V18.2938V18.3063V18.3188V18.3312V18.3437V18.3562V18.3686V18.3811V18.3935V18.406V18.4184V18.4309V18.4433V18.4558V18.4682V18.4806V18.4931V18.5055V18.5179V18.5303V18.5428V18.5552V18.5676V18.58V18.5924V18.6049V18.6173V18.6297V18.6421V18.6545V18.6669C31.3667 19.06 31.3359 19.4459 31.2766 19.8223ZM16.6334 18.6667C16.6334 19.0598 16.6642 19.4458 16.7235 19.8223L15.5668 19.2705C15.0373 19.0179 14.7 18.4834 14.7 17.8966V16.4444C14.7 15.6037 15.3816 14.9222 16.2223 14.9222H16.6334V18.6667ZM20.4941 29.6711C20.7576 29.4735 21.0781 29.3667 21.4075 29.3667H24.0001H26.5927C26.922 29.3667 27.2425 29.4735 27.506 29.6711L28.6912 30.56C29.0072 30.797 28.8396 31.3 28.4445 31.3H19.5556C19.1605 31.3 18.9929 30.797 19.3089 30.56L20.4941 29.6711Z" fill="white"/>
<path d="M23.8425 16.2012C23.9226 16.0989 24.0774 16.0989 24.1575 16.2012L24.7183 16.9178C24.7413 16.9472 24.7721 16.9696 24.8072 16.9824L25.662 17.2944C25.7841 17.3389 25.832 17.4862 25.7594 17.5939L25.2512 18.3487C25.2303 18.3797 25.2185 18.416 25.2172 18.4533L25.1847 19.3626C25.1801 19.4925 25.0548 19.5835 24.9299 19.5478L24.055 19.2977C24.019 19.2874 23.981 19.2874 23.945 19.2977L23.0701 19.5478C22.9452 19.5835 22.8199 19.4925 22.8153 19.3626L22.7828 18.4533C22.7815 18.416 22.7697 18.3797 22.7488 18.3487L22.2406 17.5939C22.168 17.4862 22.2159 17.3389 22.338 17.2944L23.1928 16.9824C23.2279 16.9696 23.2587 16.9472 23.2817 16.9178L23.8425 16.2012Z" fill="#007AFF"/>
</g>
<defs>
<filter id="filter0_d_702_1636" x="0" y="0" width="48" height="48" filterUnits="userSpaceOnUse" color-interpolation-filters="sRGB">
<feFlood flood-opacity="0" result="BackgroundImageFix"/>
<feColorMatrix in="SourceAlpha" type="matrix" values="0 0 0 0 0 0 0 0 0 0 0 0 0 0 0 0 0 0 127 0" result="hardAlpha"/>
<feOffset dy="2"/>
<feGaussianBlur stdDeviation="2"/>
<feComposite in2="hardAlpha" operator="out"/>
<feColorMatrix type="matrix" values="0 0 0 0 0.0375 0 0 0 0 0.0375 0 0 0 0 0.0375 0 0 0 0.25 0"/>
<feBlend mode="normal" in2="BackgroundImageFix" result="effect1_dropShadow_702_1636"/>
<feBlend mode="normal" in="SourceGraphic" in2="effect1_dropShadow_702_1636" result="shape"/>
</filter>
</defs>
</svg>
